<svg width="143" height="31" viewBox="0 0 143 31" fill="none" xmlns="http://www.w3.org/2000/svg">
<path d="M16.2918 30.5375H0.437537C0.19303 30.5375 0 30.3445 0 30.1V6.7432C0 6.49869 0.19303 6.30566 0.437537 6.30566H16.279C16.5235 6.30566 16.7165 6.49869 16.7165 6.7432V30.0871C16.7294 30.3316 16.5363 30.5375 16.2918 30.5375Z" fill="#E5BD33"/>
<path d="M22.5973 24.219H6.7559C6.51139 24.219 6.31836 24.026 6.31836 23.7815V0.437537C6.31836 0.19303 6.51139 0 6.7559 0H22.5973C22.8418 0 23.0349 0.19303 23.0349 0.437537V23.7815C23.0349 24.026 22.8418 24.219 22.5973 24.219Z" fill="#D27612"/>
<path d="M15.6489 6.30566H6.30615V23.1509C6.30615 23.7428 6.79516 24.2318 7.38713 24.2318H16.7298V7.38664C16.7298 6.78181 16.2408 6.30566 15.6489 6.30566Z" fill="#703D30"/>
<path d="M33.948 29.2121H35.6981V29.9585H33.0986V25.4673H33.9351V29.2121H33.948Z" fill="#703D30"/>
<path d="M39.5717 29.9585L39.25 28.9418H37.5513L37.2296 29.9585H36.3545L37.873 25.4673H38.954L40.4725 29.9585H39.5717ZM37.7701 28.2598H39.0312L38.9668 28.0539C38.8124 27.5778 38.6966 27.166 38.5937 26.8442C38.4907 26.5225 38.4392 26.3166 38.4135 26.2265L38.3878 26.0979C38.3491 26.3166 38.1561 26.9729 37.8087 28.0668L37.7701 28.2598Z" fill="#703D30"/>
<path d="M41.4243 25.4673H43.02C43.4962 25.4673 43.8694 25.5831 44.1396 25.8019C44.4099 26.0335 44.5386 26.3166 44.5386 26.677C44.5386 26.9215 44.4742 27.1402 44.3327 27.3075C44.204 27.4877 44.0238 27.6035 43.8179 27.6678C44.0624 27.7193 44.2554 27.848 44.4099 28.0153C44.5643 28.1955 44.6415 28.4271 44.6415 28.736C44.6415 29.0963 44.5128 29.3794 44.2683 29.611C44.0238 29.8427 43.6763 29.9456 43.2388 29.9456H41.4243V25.4673ZM42.2737 26.1622V27.3719H42.7755C43.0715 27.3719 43.3032 27.3075 43.4576 27.1917C43.612 27.0759 43.6892 26.9215 43.6892 26.7284C43.6892 26.5611 43.6249 26.4196 43.4962 26.3166C43.3675 26.2137 43.1745 26.1622 42.9171 26.1622H42.2737ZM42.2737 29.2764H42.9943C43.5348 29.2764 43.805 29.0705 43.805 28.6587C43.805 28.2469 43.5219 28.0282 42.9686 28.0282H42.2865V29.2764H42.2737Z" fill="#703D30"/>
<path d="M45.4912 27.7064C45.4912 27.0115 45.6842 26.4453 46.0703 26.0206C46.4564 25.5959 46.9711 25.39 47.6146 25.39C48.2709 25.39 48.7856 25.5959 49.1717 26.0206C49.5577 26.4453 49.7508 26.9986 49.7508 27.7064C49.7508 28.4013 49.5577 28.9547 49.1717 29.3793C48.7856 29.804 48.2709 30.0099 47.6274 30.0099C46.984 30.0099 46.4692 29.804 46.0832 29.3793C45.6971 28.9547 45.4912 28.4013 45.4912 27.7064ZM46.392 27.7064C46.392 28.1825 46.5078 28.5557 46.7266 28.826C46.9454 29.0962 47.2414 29.2378 47.6146 29.2378C47.9877 29.2378 48.2966 29.0962 48.5025 28.826C48.7213 28.5557 48.8242 28.1825 48.8242 27.7064C48.8242 27.2302 48.7213 26.857 48.5025 26.5739C48.2837 26.3037 47.9877 26.1621 47.6017 26.1621C47.2285 26.1621 46.9196 26.3037 46.7137 26.5739C46.5078 26.857 46.392 27.2302 46.392 27.7064Z" fill="#703D30"/>
<path d="M53.122 29.9585L52.1054 28.3241H51.6421V29.9585H50.8057V25.4673H52.1955C52.7102 25.4673 53.1092 25.596 53.4052 25.8533C53.7011 26.1107 53.8427 26.4582 53.8427 26.8828C53.8427 27.2046 53.7655 27.4748 53.6111 27.6936C53.4566 27.9124 53.2507 28.0796 52.9934 28.1826L54.1515 29.9585H53.122ZM51.6421 26.1622V27.6292H52.2084C52.4657 27.6292 52.6588 27.5649 52.7875 27.4362C52.9161 27.3075 52.9805 27.1274 52.9805 26.8828C52.9805 26.6512 52.9161 26.4711 52.7746 26.3552C52.633 26.2265 52.44 26.1622 52.1955 26.1622H51.6421Z" fill="#703D30"/>
<path d="M57.9608 29.9585L57.6391 28.9418H55.9404L55.6187 29.9585H54.7437L56.2622 25.4673H57.3431L58.8617 29.9585H57.9608ZM56.1592 28.2598H57.4204L57.356 28.0539C57.2016 27.5778 57.0858 27.166 56.9828 26.8442C56.8927 26.5225 56.8284 26.3166 56.8027 26.2265L56.7769 26.0979C56.7383 26.3166 56.5453 26.9729 56.1978 28.0668L56.1592 28.2598Z" fill="#703D30"/>
<path d="M62.658 25.4673V26.1622H61.5127V29.9585H60.6634V26.1622H59.5181V25.4673H62.658Z" fill="#703D30"/>
<path d="M63.4048 27.7064C63.4048 27.0115 63.5978 26.4453 63.9839 26.0206C64.3699 25.5959 64.8847 25.39 65.5281 25.39C66.1844 25.39 66.6992 25.5959 67.0852 26.0206C67.4713 26.4453 67.6643 26.9986 67.6643 27.7064C67.6643 28.4013 67.4713 28.9547 67.0852 29.3793C66.6992 29.804 66.1844 30.0099 65.541 30.0099C64.8976 30.0099 64.3828 29.804 63.9967 29.3793C63.5978 28.9547 63.4048 28.4013 63.4048 27.7064ZM64.3056 27.7064C64.3056 28.1825 64.4214 28.5557 64.6402 28.826C64.859 29.0962 65.1549 29.2378 65.5281 29.2378C65.9013 29.2378 66.1973 29.0962 66.4161 28.826C66.6348 28.5557 66.7378 28.1825 66.7378 27.7064C66.7378 27.2303 66.6348 26.8571 66.4161 26.5739C66.1973 26.3037 65.9013 26.1621 65.5153 26.1621C65.1421 26.1621 64.8461 26.3037 64.6273 26.5739C64.4214 26.8571 64.3056 27.2303 64.3056 27.7064ZM65.2321 25.1455L65.837 24.0131H66.6734L65.9013 25.1455H65.2321Z" fill="#703D30"/>
<path d="M71.0229 29.9585L70.0063 28.3241H69.543V29.9585H68.7065V25.4673H70.0964C70.6111 25.4673 71.01 25.596 71.306 25.8533C71.602 26.1107 71.7436 26.4582 71.7436 26.8828C71.7436 27.2046 71.6664 27.4748 71.5119 27.6936C71.3575 27.9124 71.1516 28.0796 70.8942 28.1826L72.0524 29.9585H71.0229ZM69.543 26.1622V27.6292H70.1092C70.3666 27.6292 70.5596 27.5649 70.6883 27.4362C70.817 27.3075 70.8814 27.1274 70.8814 26.8828C70.8814 26.6512 70.817 26.4711 70.6755 26.3552C70.5339 26.2265 70.3409 26.1622 70.0964 26.1622H69.543Z" fill="#703D30"/>
<path d="M72.9917 29.9585V25.4673H73.8282V29.9585H72.9917Z" fill="#703D30"/>
<path d="M74.9351 27.7064C74.9351 27.0115 75.1281 26.4453 75.5142 26.0206C75.9002 25.5959 76.415 25.39 77.0584 25.39C77.7147 25.39 78.2295 25.5959 78.6155 26.0206C79.0016 26.4453 79.1946 26.9986 79.1946 27.7064C79.1946 28.4013 79.0016 28.9547 78.6155 29.3793C78.2295 29.804 77.7147 30.0099 77.0713 30.0099C76.4278 30.0099 75.9131 29.804 75.527 29.3793C75.1281 28.9547 74.9351 28.4013 74.9351 27.7064ZM75.8359 27.7064C75.8359 28.1825 75.9517 28.5557 76.1705 28.826C76.3892 29.0962 76.6852 29.2378 77.0584 29.2378C77.4316 29.2378 77.7276 29.0962 77.9463 28.826C78.1651 28.5557 78.2681 28.1825 78.2681 27.7064C78.2681 27.2302 78.1651 26.857 77.9463 26.5739C77.7276 26.3037 77.4316 26.1621 77.0455 26.1621C76.6723 26.1621 76.3764 26.3037 76.1576 26.5739C75.9388 26.857 75.8359 27.2302 75.8359 27.7064Z" fill="#703D30"/>
<path d="M81.8068 29.8685C81.7038 29.7655 81.6523 29.6497 81.6523 29.5082C81.6523 29.3666 81.7038 29.2508 81.8068 29.1478C81.9097 29.0449 82.0255 28.9934 82.1671 28.9934C82.3087 28.9934 82.4245 29.0449 82.5274 29.1478C82.6304 29.2508 82.6818 29.3666 82.6818 29.5082C82.6818 29.6497 82.6304 29.7784 82.5274 29.8685C82.4245 29.9714 82.3087 30.0229 82.1671 30.0229C82.0255 30.0229 81.9097 29.9714 81.8068 29.8685Z" fill="#703D30"/>
<path d="M85.0884 29.9585V25.4673H85.9248V29.9585H85.0884Z" fill="#703D30"/>
<path d="M87.1343 29.9585L87.4946 25.4673H88.4598L89.0775 27.1016C89.1804 27.3719 89.2834 27.655 89.3734 27.9252C89.4635 28.1955 89.5279 28.4014 89.5793 28.5301L89.6437 28.736C89.7852 28.2727 89.9783 27.7322 90.2228 27.1016L90.8533 25.4673H91.8185L92.256 29.9585H91.4196L91.2652 28.2083L91.1493 26.6383C90.9949 27.1016 90.8019 27.6164 90.5702 28.2083L89.9397 29.8941H89.3606L88.7429 28.2083L88.2153 26.6512C88.2153 26.87 88.1895 27.3847 88.1252 28.2083L87.9965 29.9585H87.1343Z" fill="#703D30"/>
<path d="M96.3231 29.9585L96.0014 28.9418H94.3027L93.981 29.9585H93.106L94.6245 25.4673H95.7054L97.224 29.9585H96.3231ZM94.5215 28.2598H95.7827L95.7183 28.0539C95.5639 27.5778 95.4481 27.166 95.3451 26.8442C95.2422 26.5225 95.1907 26.3166 95.165 26.2265L95.1392 26.0979C95.1006 26.3166 94.9076 26.9729 94.5601 28.0668L94.5215 28.2598Z" fill="#703D30"/>
<path d="M101.908 27.3461V29.508H101.895L101.908 29.5852C101.496 29.8812 100.981 30.0228 100.376 30.0228C99.6685 30.0228 99.0894 29.8169 98.6519 29.4051C98.2144 28.9933 97.9956 28.427 97.9956 27.7193C97.9956 27.0243 98.2272 26.471 98.6776 26.0335C99.1281 25.5959 99.6943 25.39 100.389 25.39C100.904 25.39 101.341 25.4801 101.702 25.6731V26.5353C101.29 26.2908 100.865 26.1621 100.402 26.1621C99.9517 26.1621 99.5913 26.3037 99.3211 26.5868C99.0508 26.8699 98.9093 27.2431 98.9093 27.7064C98.9093 28.1825 99.038 28.5557 99.3082 28.826C99.5785 29.0962 99.9517 29.2378 100.415 29.2378C100.647 29.2378 100.865 29.1992 101.084 29.122V28.0667H100.248V27.3461H101.908Z" fill="#703D30"/>
<path d="M103.941 29.2764H105.781V29.9585H103.104V25.4673H105.755V26.1493H103.954V27.3719H105.562V28.0539H103.954V29.2764H103.941Z" fill="#703D30"/>
<path d="M106.836 29.9585L107.197 25.4673H108.162L108.78 27.1016C108.883 27.3719 108.986 27.655 109.076 27.9252C109.166 28.1955 109.23 28.4014 109.281 28.5301L109.346 28.736C109.487 28.2727 109.68 27.7322 109.925 27.1016L110.555 25.4673H111.521L111.958 29.9585H111.122L110.967 28.2083L110.851 26.6383C110.697 27.1016 110.504 27.6164 110.272 28.2083L109.642 29.8941H109.063L108.445 28.2083L107.917 26.6512C107.917 26.87 107.892 27.3847 107.827 28.2083L107.699 29.9585H106.836Z" fill="#703D30"/>
<path d="M114.648 29.8685C114.545 29.7655 114.494 29.6497 114.494 29.5082C114.494 29.3666 114.545 29.2508 114.648 29.1478C114.751 29.0449 114.867 28.9934 115.021 28.9934C115.163 28.9934 115.279 29.0449 115.382 29.1478C115.485 29.2508 115.536 29.3666 115.536 29.5082C115.536 29.6497 115.485 29.7784 115.382 29.8685C115.279 29.9714 115.163 30.0229 115.021 30.0229C114.867 30.0229 114.751 29.9714 114.648 29.8685Z" fill="#703D30"/>
<path d="M121.571 25.4673L120.04 29.9585H119.075L117.569 25.4673H118.483L119.036 27.256C119.152 27.6164 119.242 27.951 119.332 28.2727C119.422 28.5944 119.486 28.8389 119.512 28.9805L119.564 29.1992C119.666 28.6973 119.847 28.0539 120.104 27.256L120.67 25.4673H121.571Z" fill="#703D30"/>
<path d="M125.457 29.9585L125.136 28.9418H123.437L123.115 29.9585H122.24L123.759 25.4673H124.84L126.358 29.9585H125.457ZM123.656 28.2598H124.917L124.853 28.0539C124.698 27.5778 124.582 27.166 124.479 26.8442C124.376 26.5225 124.325 26.3166 124.299 26.2265L124.273 26.0979C124.235 26.3166 124.042 26.9729 123.694 28.0668L123.656 28.2598Z" fill="#703D30"/>
<path d="M130.579 25.6603V26.4839C130.245 26.2908 129.872 26.1879 129.46 26.1879C129.048 26.1879 128.713 26.3295 128.43 26.5997C128.16 26.8828 128.018 27.2431 128.018 27.7193C128.018 28.1826 128.16 28.5557 128.43 28.8389C128.701 29.1091 129.061 29.2507 129.498 29.2507C129.923 29.2507 130.283 29.1348 130.579 28.9161V29.7525C130.309 29.9327 129.923 30.0228 129.421 30.0228C128.752 30.0228 128.199 29.8169 127.774 29.3922C127.336 28.9675 127.118 28.4142 127.118 27.7193C127.118 27.0372 127.336 26.4839 127.761 26.0592C128.186 25.6345 128.739 25.4158 129.421 25.4158C129.923 25.4158 130.309 25.493 130.579 25.6603Z" fill="#703D30"/>
<path d="M131.725 29.9585V25.4673H132.561V29.9585H131.725Z" fill="#703D30"/>
<path d="M133.848 29.9585V25.4673H134.8L135.881 27.3461C136.062 27.655 136.216 27.9381 136.358 28.2083C136.499 28.4786 136.589 28.6587 136.641 28.7746L136.718 28.9418C136.679 28.5687 136.666 28.041 136.666 27.359V25.4802H137.516V29.9713H136.551L135.457 28.1054C135.289 27.8094 135.122 27.5263 134.981 27.256C134.839 26.9858 134.749 26.7928 134.685 26.677L134.607 26.4839C134.659 26.9086 134.685 27.4362 134.685 28.0925V29.9713H133.848V29.9585Z" fill="#703D30"/>
<path d="M141.685 29.9585L141.364 28.9418H139.665L139.343 29.9585H138.468L139.987 25.4673H141.068L142.586 29.9585H141.685ZM139.884 28.2598H141.145L141.081 28.0539C140.926 27.5778 140.81 27.166 140.707 26.8442C140.617 26.5225 140.553 26.3166 140.527 26.2265L140.502 26.0979C140.463 26.3166 140.27 26.9729 139.922 28.0668L139.884 28.2598Z" fill="#703D30"/>
<path d="M60.5866 4.7741L57.8069 4.01484C57.5496 3.93763 57.2664 3.93763 57.0091 4.01484L54.2294 4.7741C54.0879 4.8127 53.9463 4.76123 53.8691 4.63254L53.0197 3.31993C52.9039 3.15264 52.9811 2.921 53.1742 2.84378L57.0605 1.35101C57.2793 1.26093 57.5238 1.26093 57.7426 1.35101L61.6289 2.84378C61.822 2.921 61.8992 3.15264 61.7834 3.31993L60.934 4.63254C60.8697 4.74836 60.7153 4.79983 60.5866 4.7741Z" fill="#703D30"/>
<path d="M36.6632 14.2713C36.6632 14.8376 36.7146 15.288 36.8176 15.6483C36.9205 16.0086 37.0878 16.2789 37.3195 16.4976C37.5511 16.7035 37.86 16.8451 38.2332 16.9223C38.6063 16.9995 39.0696 17.0381 39.6101 17.0381H46.4949V20.0237H38.8766C37.8214 20.0237 36.9205 19.9336 36.187 19.7663C35.4535 19.599 34.8487 19.3288 34.3725 18.9684C33.9093 18.6081 33.5618 18.1448 33.3559 17.5915C33.15 17.0381 33.0342 16.3818 33.0342 15.6226V6.60156H36.6632V14.2713Z" fill="#703D30"/>
<path d="M61.1397 20.0107V18.6981C60.6764 18.9555 60.1745 19.1743 59.6469 19.3673C59.1193 19.5603 58.5659 19.7276 57.9868 19.8692C57.4077 20.0107 56.8286 20.1137 56.2109 20.178C55.6061 20.2424 54.9884 20.281 54.3707 20.281C53.6501 20.281 52.9552 20.2166 52.2731 20.0751C51.6039 19.9335 50.9991 19.7148 50.4844 19.4059C49.9696 19.0971 49.5449 18.6981 49.2232 18.2091C48.9015 17.7201 48.7471 17.1024 48.7471 16.3946C48.7471 15.4938 48.9916 14.7345 49.4935 14.1297C49.9825 13.5249 50.7417 13.0359 51.7584 12.6498C52.775 12.2637 54.0619 11.9678 55.619 11.7619C57.1761 11.556 59.0163 11.3887 61.1397 11.2728V10.9897C61.1397 10.771 61.0753 10.5522 60.9595 10.3334C60.8437 10.1147 60.6249 9.92163 60.3161 9.75434C60.0072 9.58704 59.5826 9.45835 59.0421 9.34253C58.5016 9.23958 57.8195 9.18811 56.9831 9.18811C56.3268 9.18811 55.6705 9.22672 55.0399 9.29106C54.3965 9.3554 53.7788 9.45835 53.1868 9.57417C52.5948 9.68999 52.0286 9.83155 51.4881 9.98597C50.9476 10.1404 50.4715 10.3077 50.0339 10.475V7.24493C50.4844 7.12911 50.9991 7.01329 51.5653 6.89747C52.1316 6.78165 52.7235 6.69157 53.3284 6.61436C53.9461 6.53714 54.5637 6.4728 55.1814 6.42133C55.812 6.36985 56.404 6.34412 56.9831 6.34412C58.1155 6.34412 59.145 6.4342 60.0973 6.62723C61.0496 6.80739 61.8732 7.10337 62.5552 7.48943C63.2373 7.8755 63.7778 8.37738 64.1638 8.96934C64.5499 9.57417 64.7429 10.282 64.7429 11.1056V20.0107H61.1397ZM61.1397 13.8852C59.7499 13.9367 58.5659 14.0139 57.5879 14.104C56.6099 14.2069 55.7991 14.3099 55.1557 14.4514C54.5123 14.5801 54.0104 14.7217 53.6372 14.8761C53.264 15.0305 52.9938 15.1849 52.8136 15.3394C52.6334 15.4938 52.5176 15.6482 52.479 15.8026C52.4404 15.9571 52.4147 16.0986 52.4147 16.2273C52.4147 16.3817 52.4533 16.5362 52.5434 16.6777C52.6334 16.8193 52.775 16.948 52.9938 17.0638C53.1997 17.1796 53.4828 17.2568 53.8431 17.3212C54.1906 17.3855 54.641 17.4241 55.1686 17.4241C55.7605 17.4241 56.3396 17.3726 56.9059 17.2826C57.4721 17.1925 58.0126 17.0638 58.5145 16.9094C59.0163 16.7549 59.5053 16.5619 59.9429 16.3431C60.3933 16.1244 60.7922 15.8927 61.1397 15.6482V13.8852Z" fill="#703D30"/>
<path d="M72.9018 6.58877V8.05581C73.2235 7.84991 73.571 7.64401 73.9442 7.42524C74.3174 7.20647 74.7292 7.01344 75.1667 6.83327C75.6042 6.65311 76.0804 6.51156 76.5823 6.39574C77.0841 6.27992 77.6375 6.22844 78.2166 6.22844C78.7957 6.22844 79.2976 6.29279 79.7222 6.40861C80.1469 6.52443 80.5201 6.69172 80.8418 6.87188C81.1635 7.06491 81.4209 7.28368 81.6526 7.51532C81.8713 7.74695 82.0644 7.99146 82.2316 8.2231C82.6949 7.92712 83.1453 7.64401 83.5957 7.3995C84.0461 7.15499 84.4965 6.93622 84.9598 6.76893C85.4102 6.58877 85.8864 6.46008 86.3625 6.35713C86.8387 6.26705 87.3277 6.21558 87.8424 6.21558C88.666 6.21558 89.3995 6.33139 90.043 6.56303C90.6864 6.79467 91.2398 7.10352 91.6902 7.50245C92.1406 7.90138 92.488 8.36466 92.7197 8.90514C92.9513 9.44563 93.08 10.0119 93.08 10.6296V19.9851H89.4381V11.1443C89.4381 10.784 89.3867 10.4751 89.2709 10.2178C89.155 9.96038 89.0135 9.74161 88.8204 9.58719C88.6403 9.41989 88.4215 9.30408 88.1641 9.22686C87.9196 9.14965 87.6494 9.11105 87.3663 9.11105C86.0665 9.11105 84.5738 9.70301 82.9137 10.8741C82.9394 10.9899 82.9523 11.1186 82.9523 11.2601C82.9652 11.4145 82.9652 11.5561 82.9652 11.7105V19.998H79.3362V11.08C79.3362 10.7196 79.2847 10.4108 79.1689 10.1663C79.0531 9.92177 78.9115 9.71588 78.7185 9.56145C78.5254 9.40703 78.3067 9.29121 78.0493 9.22686C77.8048 9.16252 77.5345 9.12391 77.2514 9.12391C76.9168 9.12391 76.5565 9.17539 76.1833 9.26547C75.8101 9.36842 75.4369 9.49711 75.0509 9.67727C74.6648 9.85743 74.2916 10.0633 73.9313 10.3078C73.5581 10.5523 73.2106 10.8097 72.8761 11.0928V20.0109H69.2471V6.58877H72.9018Z" fill="#703D30"/>
<path d="M97.5713 20.0107V6.58862H101.2V20.0107H97.5713Z" fill="#703D30"/>
<path d="M118.547 20.0108V12.4826C118.547 11.9807 118.508 11.5303 118.418 11.1185C118.328 10.7067 118.174 10.3592 117.942 10.0761C117.711 9.78014 117.389 9.56137 116.977 9.40694C116.565 9.25252 116.025 9.16244 115.381 9.16244C114.892 9.16244 114.365 9.22678 113.824 9.36834C113.284 9.49703 112.743 9.67718 112.203 9.89595C111.662 10.1147 111.16 10.3721 110.671 10.6681C110.182 10.9641 109.758 11.2729 109.372 11.5818V20.0108H105.743V6.58869H109.372V8.42892C109.822 8.17154 110.311 7.91417 110.826 7.65679C111.341 7.39942 111.881 7.16778 112.473 6.96188C113.052 6.75598 113.67 6.58869 114.313 6.46C114.97 6.33131 115.652 6.26697 116.372 6.26697C117.273 6.26697 118.084 6.36992 118.804 6.58869C119.512 6.80746 120.117 7.1163 120.619 7.51523C121.108 7.91417 121.494 8.40318 121.751 8.96941C122.009 9.53563 122.15 10.1791 122.15 10.874V20.0237H118.547V20.0108Z" fill="#703D30"/>
<path d="M138.043 20.0107V18.6981C137.58 18.9555 137.078 19.1743 136.551 19.3673C136.023 19.5603 135.47 19.7276 134.891 19.8692C134.312 20.0107 133.732 20.1137 133.115 20.178C132.497 20.2424 131.892 20.281 131.275 20.281C130.554 20.281 129.859 20.2166 129.177 20.0751C128.508 19.9335 127.903 19.7148 127.388 19.4059C126.873 19.0971 126.449 18.6981 126.127 18.2091C125.805 17.7201 125.651 17.1024 125.651 16.3946C125.651 15.4938 125.895 14.7345 126.397 14.1297C126.886 13.5249 127.646 13.0359 128.662 12.6498C129.679 12.2637 130.966 11.9678 132.523 11.7619C134.08 11.556 135.92 11.3887 138.043 11.2728V10.9897C138.043 10.771 137.979 10.5522 137.863 10.3334C137.748 10.1147 137.529 9.92163 137.22 9.75434C136.911 9.58704 136.486 9.45835 135.946 9.34253C135.405 9.23958 134.723 9.18811 133.887 9.18811C133.231 9.18811 132.574 9.22672 131.944 9.29106C131.3 9.3554 130.683 9.45835 130.091 9.57417C129.499 9.68999 128.932 9.83155 128.392 9.98597C127.851 10.1404 127.375 10.3077 126.938 10.475V7.24493C127.388 7.12911 127.903 7.01329 128.469 6.89747C129.035 6.78165 129.627 6.69157 130.232 6.61436C130.85 6.53714 131.468 6.4728 132.085 6.42133C132.716 6.36985 133.308 6.34412 133.887 6.34412C135.019 6.34412 136.049 6.4342 137.001 6.62723C137.953 6.80739 138.777 7.10337 139.459 7.48943C140.141 7.8755 140.682 8.37738 141.068 8.96934C141.454 9.57417 141.647 10.282 141.647 11.1056V20.0107H138.043ZM138.043 13.8852C136.654 13.9367 135.47 14.0139 134.492 14.104C133.514 14.2069 132.703 14.3099 132.06 14.4514C131.416 14.5801 130.914 14.7217 130.541 14.8761C130.168 15.0305 129.898 15.1849 129.717 15.3394C129.537 15.4938 129.421 15.6482 129.383 15.8026C129.344 15.9571 129.318 16.0986 129.318 16.2273C129.318 16.3817 129.357 16.5362 129.447 16.6777C129.537 16.8193 129.679 16.948 129.898 17.0638C130.103 17.1796 130.387 17.2568 130.747 17.3212C131.094 17.3855 131.545 17.4241 132.072 17.4241C132.664 17.4241 133.243 17.3726 133.81 17.2826C134.376 17.1925 134.916 17.0638 135.418 16.9094C135.92 16.7549 136.409 16.5619 136.847 16.3431C137.297 16.1244 137.696 15.8927 138.043 15.6482V13.8852Z" fill="#703D30"/>
</svg>
