<svg width="154" height="30" viewBox="0 0 154 30" fill="none" xmlns="http://www.w3.org/2000/svg">
<g clip-path="url(#clip0_3_1599)">
<path d="M98.9 16.9099V16.1399C98.9 15.6199 98.66 15.2199 98.17 14.9399C97.68 14.6599 96.96 14.5199 95.98 14.5199C94.08 14.5199 93.13 15.0599 93.13 16.1399V16.8299C93.13 17.1999 93.26 17.4999 93.53 17.7399C93.8 17.9799 94.11 18.1499 94.47 18.2599L98.5 19.5799C99.19 19.7999 99.74 20.1199 100.14 20.5499C100.54 20.9699 100.75 21.4799 100.75 22.0699V23.5699C100.75 24.4199 100.35 25.1299 99.55 25.6899C98.75 26.2499 97.56 26.5299 95.98 26.5299C94.39 26.5299 93.2 26.2499 92.42 25.6899C91.64 25.1299 91.25 24.4299 91.25 23.5699V22.8699C91.25 22.6199 91.37 22.4999 91.61 22.4999H92.58C92.81 22.4999 92.93 22.6199 92.93 22.8699V23.4999C92.93 24.0299 93.19 24.4399 93.71 24.7199C94.23 25.0099 94.99 25.1499 95.99 25.1499C96.99 25.1499 97.75 25.0099 98.28 24.7199C98.81 24.4299 99.08 24.0299 99.08 23.4999V22.5299C99.08 22.1599 98.95 21.8699 98.68 21.6399C98.41 21.4099 98.03 21.2199 97.54 21.0599L93.51 19.7299C92.98 19.5499 92.51 19.2299 92.1 18.7799C91.69 18.3199 91.49 17.7899 91.49 17.1899V16.1699C91.49 15.2999 91.85 14.5899 92.58 14.0299C93.31 13.4699 94.45 13.1899 96.02 13.1899C97.59 13.1899 98.73 13.4699 99.47 14.0299C100.21 14.5899 100.58 15.2999 100.58 16.1699V16.9399C100.58 17.1599 100.46 17.2699 100.21 17.2699H99.24C99.02 17.2699 98.91 17.1599 98.91 16.9399L98.9 16.9099Z" fill="#FFEB0B"/>
<path d="M103.86 16.9399V16.4899C103.86 14.2699 105.43 13.1699 108.58 13.1699C110.28 13.1699 111.5 13.4599 112.22 14.0399C112.94 14.6199 113.3 15.4399 113.3 16.4899V25.9099C113.3 26.1699 113.18 26.3099 112.93 26.3099H111.98C111.84 26.3099 111.75 26.2799 111.7 26.2099C111.65 26.1499 111.61 26.0499 111.6 25.9099L111.55 24.9799C110.26 25.9999 108.82 26.5099 107.23 26.5099C106.06 26.5099 105.17 26.2199 104.55 25.6399C103.93 25.0599 103.62 24.3199 103.62 23.4299V22.1099C103.62 21.2099 103.91 20.4799 104.5 19.8999C105.09 19.3199 105.93 19.0299 107.02 19.0299H111.52V16.6599C111.52 16.0099 111.3 15.5199 110.86 15.1699C110.42 14.8199 109.66 14.6499 108.56 14.6499C107.46 14.6499 106.69 14.8199 106.25 15.1499C105.81 15.4799 105.59 15.9699 105.59 16.6099V16.9299C105.59 17.2099 105.46 17.3499 105.19 17.3499H104.24C103.99 17.3499 103.87 17.2099 103.87 16.9299L103.86 16.9399ZM107.63 25.0099C108.97 25.0099 110.26 24.5199 111.5 23.5399V20.4699H107.34C106.01 20.4699 105.35 21.0999 105.35 22.3599V23.1899C105.35 24.3999 106.11 25.0099 107.63 25.0099Z" fill="#FFEB0B"/>
<path d="M125.09 25.9098L125.04 24.9798C123.85 25.9998 122.41 26.5098 120.74 26.5098C119.56 26.5098 118.66 26.2198 118.04 25.6398C117.42 25.0598 117.11 24.2898 117.11 23.3298V13.7698C117.11 13.5098 117.23 13.3698 117.47 13.3698H118.54C118.79 13.3698 118.91 13.4998 118.91 13.7698V22.9098C118.91 24.2298 119.69 24.8898 121.24 24.8898C122.6 24.8898 123.85 24.4098 125.01 23.4598V13.7698C125.01 13.5098 125.13 13.3698 125.38 13.3698H126.45C126.69 13.3698 126.81 13.4998 126.81 13.7698V25.9198C126.81 26.0598 126.78 26.1698 126.73 26.2298C126.67 26.2898 126.58 26.3198 126.46 26.3198H125.49C125.34 26.3198 125.25 26.2898 125.2 26.2398C125.15 26.1798 125.11 26.0798 125.1 25.9298L125.09 25.9098ZM124.72 8.15977L122.66 11.1898C122.54 11.3498 122.38 11.4298 122.19 11.4298H121.32C121.2 11.4298 121.12 11.3998 121.08 11.3298C121.04 11.2698 121.05 11.1698 121.12 11.0598L122.87 8.12977C123.02 7.87977 123.2 7.75977 123.39 7.75977H124.54C124.69 7.75977 124.77 7.79977 124.8 7.87977C124.83 7.95977 124.8 8.04977 124.72 8.14977V8.15977Z" fill="#FFEB0B"/>
<path d="M138.84 25.9097L138.79 24.9497C137.49 25.9897 136 26.5097 134.34 26.5097C133.12 26.5097 132.21 26.2097 131.6 25.6097C130.99 25.0097 130.69 24.1997 130.69 23.1597V16.5097C130.69 15.4697 130.99 14.6497 131.6 14.0597C132.21 13.4597 133.12 13.1597 134.34 13.1597C135.89 13.1597 137.37 13.6797 138.76 14.7097V8.38975C138.76 8.12975 138.88 7.98975 139.13 7.98975H140.18C140.44 7.98975 140.56 8.11975 140.56 8.38975V25.9097C140.56 26.1697 140.43 26.3097 140.18 26.3097H139.23C139.09 26.3097 139 26.2797 138.94 26.2097C138.88 26.1497 138.85 26.0497 138.83 25.9097H138.84ZM132.51 16.7797V22.8997C132.51 23.4797 132.7 23.9497 133.07 24.3097C133.44 24.6697 134.02 24.8497 134.82 24.8497C136.15 24.8497 137.47 24.3597 138.77 23.3897V16.2897C137.5 15.2897 136.18 14.7897 134.82 14.7897C134.03 14.7897 133.45 14.9697 133.07 15.3297C132.69 15.6897 132.51 16.1697 132.51 16.7597V16.7797Z" fill="#FFEB0B"/>
<path d="M153.98 16.5399V19.7599C153.98 20.0099 153.86 20.1299 153.61 20.1299H146.21V23.0299C146.21 23.6899 146.43 24.1899 146.87 24.5299C147.31 24.8699 148.1 25.0499 149.24 25.0499C150.38 25.0499 151.16 24.8799 151.61 24.5299C152.06 24.1799 152.28 23.6799 152.28 23.0299V22.5799C152.28 22.3399 152.4 22.2199 152.64 22.2199H153.59C153.85 22.2199 153.99 22.3399 153.99 22.5799V23.1299C153.99 24.2099 153.62 25.0499 152.88 25.6299C152.14 26.2099 150.91 26.5099 149.19 26.5099C147.47 26.5099 146.26 26.2199 145.53 25.6299C144.79 25.0499 144.42 24.2099 144.42 23.1299V16.5299C144.42 15.4499 144.79 14.6099 145.54 14.0299C146.29 13.4499 147.52 13.1499 149.24 13.1499C150.94 13.1499 152.16 13.4399 152.89 14.0299C153.62 14.6099 153.98 15.4499 153.98 16.5299V16.5399ZM146.21 16.6399V18.7399H152.28V16.6399C152.28 15.2999 151.27 14.6299 149.24 14.6299C148.13 14.6299 147.35 14.7999 146.89 15.1499C146.43 15.4999 146.21 15.9899 146.21 16.6299V16.6399Z" fill="#FFEB0B"/>
<path d="M33.1495 3.20996H22.3295C18.5695 3.20996 15.5195 6.25996 15.5195 10.02V11.07C15.5195 11.6 15.9995 12 16.5295 11.9L20.3995 11.16C20.7295 11.1 20.9695 10.81 20.9695 10.47C20.9695 9.46996 21.7795 8.64996 22.7895 8.64996H32.6995C33.6995 8.64996 34.5195 9.45996 34.5195 10.47V12.5L20.7095 15.11C17.7095 15.68 15.5295 18.3 15.5295 21.36V23.19C15.5295 26.95 18.5795 30 22.3395 30H33.1595C36.9195 30 39.9695 26.95 39.9695 23.19V15.76V11.47V10.02C39.9695 6.25996 36.9195 3.20996 33.1595 3.20996H33.1495ZM34.5095 22.74C34.5095 23.74 33.6995 24.56 32.6895 24.56H22.7795C21.7795 24.56 20.9595 23.75 20.9595 22.74V22.11C20.9595 21.24 21.5795 20.49 22.4395 20.33L34.4995 18.05V22.74H34.5095Z" fill="#FFEB0B"/>
<path d="M10.65 24.55H7.95C6.57 24.55 5.45 23.43 5.45 22.05V0.85C5.45 0.38 5.07 0 4.6 0H0.85C0.38 0 0 0.38 0 0.85V23.19C0 26.95 3.05 30 6.81 30H10.64C11.11 30 11.49 29.62 11.49 29.15V25.4C11.49 24.93 11.11 24.55 10.64 24.55H10.65Z" fill="#FFEB0B"/>
<path d="M52.1303 30H62.9503C66.7103 30 69.7603 26.95 69.7603 23.19V13.92C69.7603 9.94 66.1403 6.93 62.2203 7.67L50.7703 9.83V0.85C50.7703 0.38 50.3903 0 49.9203 0H46.1703C45.7003 0 45.3203 0.38 45.3203 0.85V10.86V15.06V23.19C45.3203 26.95 48.3703 30 52.1303 30ZM50.7703 15.38L62.1603 13.23C63.2803 13.02 64.3103 13.88 64.3103 15.02V22.74C64.3103 23.74 63.5003 24.56 62.4903 24.56H52.5803C51.5803 24.56 50.7603 23.75 50.7603 22.74V15.39L50.7703 15.38Z" fill="#FFEB0B"/>
<path d="M75.9701 30.0001H79.7201C80.1901 30.0001 80.5701 29.6201 80.5701 29.1501V10.3801C80.5701 9.85006 80.0801 9.45006 79.5601 9.55006L75.8101 10.2701C75.4101 10.3501 75.1201 10.7001 75.1201 11.1001V29.1501C75.1201 29.6201 75.5001 30.0001 75.9701 30.0001Z" fill="#FFEB0B"/>
<path d="M76.1399 5.43L79.8899 4.7C80.2899 4.62 80.5799 4.27 80.5799 3.87V0.85C80.5799 0.38 80.1999 0 79.7299 0H75.9799C75.5099 0 75.1299 0.38 75.1299 0.85V4.6C75.1299 5.13 75.6199 5.53 76.1399 5.43Z" fill="#FFEB0B"/>
</g>
<defs>
<clipPath id="clip0_3_1599">
<rect width="153.98" height="30" fill="white"/>
</clipPath>
</defs>
</svg>
