<svg xmlns="http://www.w3.org/2000/svg" viewBox="0 0 80 80">
  <defs>
    <linearGradient id="goldGrad" x1="0%" y1="0%" x2="100%" y2="100%">
      <stop offset="0%" style="stop-color:#f0b429;stop-opacity:1" />
      <stop offset="100%" style="stop-color:#d69e10;stop-opacity:1" />
    </linearGradient>
  </defs>
  
  <!-- Starburst Shape -->
  <path d="M40 4 L47 18 L62 16 L65 30 L80 36 L74 50 L80 64 L65 70 L62 84 L47 82 L40 96 L33 82 L18 84 L15 70 L0 64 L6 50 L0 36 L15 30 L18 16 L33 18 Z" fill="url(#goldGrad)" stroke="#b8860b" stroke-width="1"/>
  
  <!-- Inner Circle -->
  <circle cx="40" cy="40" r="28" fill="#003399"/>
  <circle cx="40" cy="40" r="24" fill="none" stroke="#ffffff" stroke-width="1" stroke-dasharray="3 2"/>
  
  <!-- Crown Icon -->
  <path d="M28 36 l4 14 l8-8 l8 8 l4-14 v-4 h-24 v4 z" fill="#ffffff"/>
  <circle cx="28" cy="30" r="2" fill="#ffffff"/>
  <circle cx="40" cy="26" r="2" fill="#ffffff"/>
  <circle cx="52" cy="30" r="2" fill="#ffffff"/>
</svg>
