<svg xmlns="http://www.w3.org/2000/svg" viewBox="0 0 80 80">
  <defs>
    <linearGradient id="shieldGrad" x1="0%" y1="0%" x2="0%" y2="100%">
      <stop offset="0%" style="stop-color:#003399;stop-opacity:1" />
      <stop offset="100%" style="stop-color:#001f5c;stop-opacity:1" />
    </linearGradient>
  </defs>
  <!-- Background Shield -->
  <path d="M40 5 C15 5 10 15 10 35 c0 25 20 40 30 44 c10-4 30-19 30-44 c0-20-5-30-30-30 z" fill="url(#shieldGrad)" />
  
  <!-- Lock Icon -->
  <path d="M40 22 a9 9 0 0 0-9 9 v5 h-2 a3 3 0 0 0-3 3 v16 a3 3 0 0 0 3 3 h22 a3 3 0 0 0 3-3 v-16 a3 3 0 0 0-3-3 h-2 v-5 a9 9 0 0 0-9-9 z m0 4 a5 5 0 0 1 5 5 v5 h-10 v-5 a5 5 0 0 1 5-5 z" fill="#ffffff"/>
</svg>
